<svg width="72" height="72" viewBox="0 0 72 72" fill="none" xmlns="http://www.w3.org/2000/svg">
<path d="M10.2857 0H61.7143C67.3714 0 72 4.62857 72 10.2857V61.7143C72 67.3714 67.3714 72 61.7143 72H10.2857C4.62857 72 0 67.3714 0 61.7143V10.2857C0 4.62857 4.62857 0 10.2857 0Z" fill="#FFFBF0"/>
<path d="M58.8686 23.0282C58.8853 23.0932 58.8939 23.1602 58.8939 23.2275V33.6913C58.8939 33.9646 58.7553 34.2171 58.5305 34.3531L50.2043 39.4095V49.4317C50.2043 49.7044 50.0669 49.9562 49.8426 50.0935L32.4624 60.6469C32.4227 60.6708 32.3793 60.686 32.3359 60.7022C32.3196 60.708 32.3042 60.7185 32.287 60.7232C32.1655 60.757 32.0378 60.757 31.9163 60.7232C31.8964 60.7175 31.8784 60.7061 31.8594 60.6984C31.8196 60.6832 31.778 60.6698 31.74 60.6469L14.3635 50.0935C14.1388 49.9574 14 49.705 14 49.4317V18.0405C14 17.9718 14.009 17.905 14.0253 17.8402C14.0307 17.8183 14.0434 17.7982 14.0506 17.7763C14.0642 17.7362 14.0769 17.6952 14.0967 17.658C14.1103 17.6332 14.1302 17.6132 14.1465 17.5903C14.1673 17.5598 14.1863 17.5283 14.2107 17.5016C14.2315 17.4797 14.2586 17.4635 14.2821 17.4444C14.3083 17.4215 14.3318 17.3967 14.3617 17.3786H14.3626L23.0513 12.1019C23.2752 11.966 23.5507 11.966 23.7746 12.1019L32.4633 17.3786H32.4651C32.4941 17.3977 32.5185 17.4215 32.5447 17.4435C32.5682 17.4625 32.5944 17.4797 32.6152 17.5007C32.6406 17.5283 32.6586 17.5598 32.6803 17.5903C32.6957 17.6132 32.7165 17.6332 32.7292 17.658C32.75 17.6962 32.7617 17.7362 32.7762 17.7763C32.7834 17.7982 32.7961 17.8183 32.8015 17.8411C32.8181 17.9061 32.8266 17.9731 32.8268 18.0405V37.6471L40.0671 33.2497V23.2266C40.0671 23.1598 40.0762 23.0921 40.0924 23.0282C40.0988 23.0053 40.1105 22.9853 40.1177 22.9633C40.1322 22.9233 40.1449 22.8823 40.1648 22.8451C40.1783 22.8203 40.1982 22.8003 40.2136 22.7774C40.2353 22.7469 40.2534 22.7154 40.2787 22.6887C40.2995 22.6668 40.3257 22.6505 40.3492 22.6315C40.3763 22.6086 40.3998 22.5838 40.4288 22.5657H40.4297L49.1193 17.289C49.3432 17.1529 49.6188 17.1529 49.8426 17.289L58.5314 22.5657C58.5621 22.5847 58.5856 22.6086 58.6127 22.6305C58.6353 22.6496 58.6616 22.6668 58.6824 22.6877C58.7077 22.7154 58.7257 22.7469 58.7475 22.7774C58.7637 22.8003 58.7836 22.8203 58.7963 22.8451C58.8171 22.8823 58.8288 22.9233 58.8433 22.9633C58.8514 22.9853 58.8632 23.0053 58.8686 23.0282ZM57.4455 33.2497V24.5484L54.4049 26.3947L50.2043 28.9458V37.6471L57.4464 33.2497H57.4455ZM48.7568 48.9901V40.2831L44.6249 42.7722L32.8259 49.8752V58.6642L48.7568 48.9901ZM15.4484 19.3613V48.9901L31.3775 58.6633V49.8761L23.0558 44.9084L23.0531 44.9065L23.0495 44.9046C23.0215 44.8874 22.998 44.8626 22.9717 44.8416C22.9491 44.8226 22.9229 44.8073 22.903 44.7863L22.9012 44.7835C22.8777 44.7596 22.8614 44.7301 22.8415 44.7034C22.8235 44.6776 22.8018 44.6557 22.7873 44.629L22.7864 44.6261C22.7701 44.5975 22.7602 44.5632 22.7484 44.5308C22.7367 44.5021 22.7213 44.4754 22.7141 44.4449V44.444C22.705 44.4077 22.7032 44.3696 22.6996 44.3324C22.696 44.3038 22.6887 44.2752 22.6887 44.2466V44.2446V23.7587L18.489 21.2067L15.4484 19.3623V19.3613ZM23.4139 13.645L16.1744 18.0405L23.412 22.436L30.6506 18.0395L23.412 13.645H23.4139ZM27.1787 41.0765L31.3784 38.5264V19.3613L28.3378 21.2076L24.1372 23.7587V42.9238L27.1787 41.0765ZM49.481 18.832L42.2425 23.2275L49.481 27.623L56.7186 23.2266L49.481 18.832ZM48.7568 28.9458L44.5561 26.3947L41.5155 24.5484V33.2497L45.7152 35.7998L48.7568 37.6471V28.9458ZM32.1008 48.5543L42.718 42.1609L48.0253 38.966L40.7922 34.5734L32.4642 39.6308L24.874 44.2399L32.1008 48.5543Z" fill="#FF2D20"/>
</svg>
