<svg width="73" height="72" viewBox="0 0 73 72" fill="none" xmlns="http://www.w3.org/2000/svg">
<g clip-path="url(#clip0_4047_792)">
<path d="M62.05 0H10.95C4.90248 0 0 4.83532 0 10.8V61.2C0 67.1647 4.90248 72 10.95 72H62.05C68.0975 72 73 67.1647 73 61.2V10.8C73 4.83532 68.0975 0 62.05 0Z" fill="#777BB3"/>
<path d="M22.0996 28.4063H13.8301C13.7375 28.4011 13.6457 28.4257 13.5686 28.4764C13.4914 28.5272 13.4331 28.6012 13.4023 28.6875L9.55273 48.5156C9.55273 48.9375 9.98047 48.9375 9.98047 48.9375H14.2578C14.6855 48.9375 14.6855 48.6563 14.6855 48.6563L15.6836 43.7344H19.5332C25.5215 43.7344 28.5156 39.7969 29.2285 36.2813C29.9414 32.7656 29.3711 28.4063 22.0996 28.4063ZM23.9531 36C23.3828 38.6719 21.5293 39.7969 18.9629 39.7969H16.3965L17.9648 32.3438H20.5312C24.3809 32.3438 24.2383 33.75 23.9531 36Z" fill="black" stroke="white" stroke-width="2"/>
<path d="M39.209 43.7344C38.6387 43.7344 38.7813 43.1719 38.7813 43.1719L40.4922 34.5938C40.4922 33.4688 41.3477 32.3438 37.9258 32.4844H35.3594L33.2207 43.4531C33.2207 43.4531 33.2207 43.875 32.6504 43.875H28.5156C28.0879 43.875 28.0879 43.4531 28.0879 43.4531L32.0801 23.625C32.0801 23.625 32.0801 23.3438 32.6504 23.3438H36.9277C37.3555 23.3438 37.2129 23.7656 37.2129 23.7656L36.2148 28.5469H39.9219C45.0547 28.5469 46.3379 30.9375 45.9102 33.75L44.0566 43.4531C44.0566 43.4531 44.0566 43.875 43.3438 43.875L39.209 43.7344Z" fill="black" stroke="white" stroke-width="2"/>
<path d="M56.1758 28.4063H47.9062C47.8137 28.4011 47.7219 28.4257 47.6448 28.4764C47.5676 28.5272 47.5093 28.6012 47.4785 28.6875L43.6289 48.5156C43.6289 48.9375 44.0566 48.9375 44.0566 48.9375H48.334C48.7617 48.9375 48.7617 48.6563 48.7617 48.6563L49.7598 43.7344H53.6094C59.5977 43.7344 62.5918 39.7969 63.3047 36.2813C64.0176 32.7656 63.4473 28.4063 56.1758 28.4063ZM58.0293 36C57.459 38.6719 55.6055 39.7969 53.0391 39.7969H50.4727L52.041 32.3438H54.6074C58.457 32.3438 58.3145 33.75 58.0293 36Z" fill="black" stroke="white" stroke-width="2"/>
</g>
<defs>
<clipPath id="clip0_4047_792">
<rect width="73" height="72" fill="white"/>
</clipPath>
</defs>
</svg>
